<svg width="273" height="272" viewBox="0 0 273 272" fill="none" xmlns="http://www.w3.org/2000/svg">
<rect x="1" y="1" width="78" height="78" fill="#5452FF"/>
<rect x="1" y="1" width="78" height="78" stroke="black" stroke-width="2"/>
<path d="M39 15L47.6052 27.156L61.8254 31.5836L52.9235 43.524L53.1068 58.4164L39 53.64L24.8932 58.4164L25.0765 43.524L16.1746 31.5836L30.3948 27.156L39 15Z" fill="#FFC600"/>
<rect x="96" y="1" width="78" height="78" fill="#F24D1D"/>
<rect x="96" y="1" width="78" height="78" stroke="black" stroke-width="2"/>
<path d="M134 18C146.15 18 156 27.8497 156 40C156 52.1503 146.15 62 134 62H112V40C112 27.8497 121.85 18 134 18Z" fill="#20A65A" stroke="black" stroke-width="2"/>
<rect x="191" y="1" width="78" height="78" fill="#5452FF"/>
<rect x="191" y="1" width="78" height="78" stroke="black" stroke-width="2"/>
<path d="M207 26C207 21.5817 210.582 18 215 18H243C247.418 18 251 21.5817 251 26V54C251 58.4183 247.418 62 243 62H215C210.582 62 207 58.4183 207 54V26Z" fill="#FFC600"/>
<line x1="218.5" y1="34.5" x2="239.5" y2="34.5" stroke="black" stroke-width="2"/>
<line x1="223.5" y1="50.5" x2="223.5" y2="29.5" stroke="black" stroke-width="2"/>
<line x1="218.5" y1="45.5" x2="239.5" y2="45.5" stroke="black" stroke-width="2"/>
<line x1="234.5" y1="50.5" x2="234.5" y2="29.5" stroke="black" stroke-width="2"/>
<rect x="1" y="97" width="78" height="78" fill="#FFC600"/>
<rect x="1" y="97" width="78" height="78" stroke="black" stroke-width="2"/>
<mask id="path-12-inside-1_4_391" fill="white">
<path d="M19 135H78V174H19V135Z"/>
</mask>
<path d="M19 135H78V174H19V135Z" fill="#5452FF"/>
<path d="M19 135V133H17V135H19ZM19 135V137H78V135V133H19V135ZM19 174H21V135H19H17V174H19Z" fill="black" mask="url(#path-12-inside-1_4_391)"/>
<mask id="path-14-inside-2_4_391" fill="white">
<path d="M19 123C19 118.582 22.5817 115 27 115H78V135H19V123Z"/>
</mask>
<path d="M19 123C19 118.582 22.5817 115 27 115H78V135H19V123Z" fill="#F24D1D"/>
<path d="M17 123C17 117.477 21.4772 113 27 113H78V117H27C23.6863 117 21 119.686 21 123H17ZM78 135H19H78ZM17 135V123C17 117.477 21.4772 113 27 113V117C23.6863 117 21 119.686 21 123V135H17ZM78 115V135V115Z" fill="black" mask="url(#path-14-inside-2_4_391)"/>
<rect x="96" y="97" width="78" height="78" fill="#1E1E1E"/>
<rect x="96" y="97" width="78" height="78" stroke="black" stroke-width="2"/>
<path d="M127 115H134V129H127C123.134 129 120 125.866 120 122C120 118.134 123.134 115 127 115Z" stroke="white" stroke-width="2"/>
<path d="M141 115H134V129H141C144.866 129 148 125.866 148 122C148 118.134 144.866 115 141 115Z" stroke="white" stroke-width="2"/>
<path d="M141 129C137.134 129 134 132.134 134 136C134 139.866 137.134 143 141 143C144.866 143 148 139.866 148 136C148 132.134 144.866 129 141 129Z" stroke="white" stroke-width="2"/>
<path d="M127 129H134V143H127C123.134 143 120 139.866 120 136C120 132.134 123.134 129 127 129Z" stroke="white" stroke-width="2"/>
<path d="M127 143H134V150C134 153.866 130.866 157 127 157C123.134 157 120 153.866 120 150C120 146.134 123.134 143 127 143Z" stroke="white" stroke-width="2"/>
<path d="M135 129.5L135.5 130.5" stroke="white" stroke-width="3"/>
<rect x="191" y="97" width="78" height="78" fill="#FFC600"/>
<rect x="191" y="97" width="78" height="78" stroke="black" stroke-width="2"/>
<path d="M250.308 134.623L236.758 141.303L236.453 141.453L236.303 141.758L229.622 155.308L216.394 121.394L250.308 134.623Z" fill="#20A65A" stroke="black" stroke-width="2"/>
<rect x="1" y="193" width="78" height="78" fill="#F24D1D"/>
<rect x="1" y="193" width="78" height="78" stroke="black" stroke-width="2"/>
<mask id="path-26-inside-3_4_391" fill="white">
<path d="M39.6172 216C50.873 216 60.6029 222.526 65.2344 232C60.6029 241.474 50.873 248 39.6172 248C28.3613 248 18.6315 241.474 14 232C18.6315 222.526 28.3613 216 39.6172 216Z"/>
</mask>
<path d="M39.6172 216C50.873 216 60.6029 222.526 65.2344 232C60.6029 241.474 50.873 248 39.6172 248C28.3613 248 18.6315 241.474 14 232C18.6315 222.526 28.3613 216 39.6172 216Z" fill="#20A65A"/>
<path d="M65.2344 232L67.0312 232.878L67.4606 232L67.0312 231.122L65.2344 232ZM14 232L12.2032 231.122L11.7738 232L12.2032 232.878L14 232ZM39.6172 216V218C50.0799 218 59.1286 224.064 63.4376 232.878L65.2344 232L67.0312 231.122C62.0771 220.988 51.6662 214 39.6172 214V216ZM65.2344 232L63.4376 231.122C59.1286 239.936 50.0799 246 39.6172 246V248V250C51.6662 250 62.0771 243.012 67.0312 232.878L65.2344 232ZM39.6172 248V246C29.1545 246 20.1057 239.936 15.7968 231.122L14 232L12.2032 232.878C17.1573 243.012 27.5682 250 39.6172 250V248ZM14 232L15.7968 232.878C20.1057 224.064 29.1545 218 39.6172 218V216V214C27.5682 214 17.1573 220.988 12.2032 231.122L14 232Z" fill="black" mask="url(#path-26-inside-3_4_391)"/>
<circle cx="40.5" cy="231.5" r="7.5" fill="black"/>
<rect x="96" y="193" width="78" height="78" fill="#20A65A"/>
<rect x="96" y="193" width="78" height="78" stroke="black" stroke-width="2"/>
<circle cx="135" cy="232" r="21" fill="black" stroke="#FFC600" stroke-width="6"/>
<rect x="191" y="193" width="78" height="78" fill="#F24D1D"/>
<rect x="191" y="193" width="78" height="78" stroke="black" stroke-width="2"/>
<mask id="path-32-inside-4_4_391" fill="white">
<path d="M240.5 208C248.508 208 255 214.492 255 222.5C255 226.134 253.663 229.455 251.454 232C253.663 234.545 255 237.866 255 241.5C255 249.508 248.508 256 240.5 256C236.623 256 233.102 254.478 230.5 251.999C227.898 254.478 224.377 256 220.5 256C212.492 256 206 249.508 206 241.5C206 237.866 207.336 234.545 209.545 232C207.336 229.455 206 226.134 206 222.5C206 214.492 212.492 208 220.5 208C224.377 208 227.898 209.522 230.5 212C233.102 209.522 236.623 208 240.5 208Z"/>
</mask>
<path d="M240.5 208C248.508 208 255 214.492 255 222.5C255 226.134 253.663 229.455 251.454 232C253.663 234.545 255 237.866 255 241.5C255 249.508 248.508 256 240.5 256C236.623 256 233.102 254.478 230.5 251.999C227.898 254.478 224.377 256 220.5 256C212.492 256 206 249.508 206 241.5C206 237.866 207.336 234.545 209.545 232C207.336 229.455 206 226.134 206 222.5C206 214.492 212.492 208 220.5 208C224.377 208 227.898 209.522 230.5 212C233.102 209.522 236.623 208 240.5 208Z" fill="#FFC600"/>
<path d="M251.454 232L249.944 230.689L248.806 232L249.944 233.311L251.454 232ZM230.5 251.999L231.88 250.551L230.5 249.237L229.12 250.551L230.5 251.999ZM209.545 232L211.055 233.311L212.193 232L211.055 230.689L209.545 232ZM230.5 212L229.12 213.448L230.5 214.762L231.88 213.448L230.5 212ZM240.5 208V210C247.404 210 253 215.596 253 222.5H255H257C257 213.387 249.613 206 240.5 206V208ZM255 222.5H253C253 225.634 251.849 228.494 249.944 230.689L251.454 232L252.964 233.311C255.477 230.417 257 226.634 257 222.5H255ZM251.454 232L249.944 233.311C251.849 235.506 253 238.366 253 241.5H255H257C257 237.366 255.477 233.583 252.964 230.689L251.454 232ZM255 241.5H253C253 248.404 247.404 254 240.5 254V256V258C249.613 258 257 250.613 257 241.5H255ZM240.5 256V254C237.157 254 234.124 252.69 231.88 250.551L230.5 251.999L229.12 253.447C232.079 256.266 236.089 258 240.5 258V256ZM230.5 251.999L229.12 250.551C226.876 252.69 223.843 254 220.5 254V256V258C224.911 258 228.921 256.266 231.88 253.447L230.5 251.999ZM220.5 256V254C213.596 254 208 248.404 208 241.5H206H204C204 250.613 211.387 258 220.5 258V256ZM206 241.5H208C208 238.366 209.151 235.505 211.055 233.311L209.545 232L208.034 230.689C205.522 233.584 204 237.367 204 241.5H206ZM209.545 232L211.055 230.689C209.151 228.495 208 225.634 208 222.5H206H204C204 226.633 205.522 230.416 208.034 233.311L209.545 232ZM206 222.5H208C208 215.596 213.596 210 220.5 210V208V206C211.387 206 204 213.387 204 222.5H206ZM220.5 208V210C223.843 210 226.876 211.31 229.12 213.448L230.5 212L231.88 210.552C228.921 207.733 224.911 206 220.5 206V208ZM230.5 212L231.88 213.448C234.124 211.31 237.157 210 240.5 210V208V206C236.089 206 232.079 207.733 229.12 210.552L230.5 212Z" fill="black" mask="url(#path-32-inside-4_4_391)"/>
</svg>
